<svg width="332.99375px" height="129.2px" xmlns="http://www.w3.org/2000/svg" viewBox="83.50312500000001 10.400000000000006 332.99375 129.2" style="background: rgba(0, 0, 0, 0);" preserveAspectRatio="xMidYMid"><defs><filter id="editing-extrude-glow"><feFlood flood-color="#333333" result="flood-1"></feFlood><feMorphology operator="erode" radius="1" in="SourceAlpha" result="erode"></feMorphology><feComposite operator="in" in="flood-1" in2="erode" result="comp1"></feComposite><feConvolveMatrix order="3,3" divisor="1" in="comp1" result="convolve" kernelMatrix="0 0 0 1 1 1 0 0 0"></feConvolveMatrix><feOffset dx="-3" dy="0" in="convolve" result="extrude"></feOffset><feComposite operator="in" in="flood-1" in2="extrude" result="comp-extrude"></feComposite><feFlood flood-color="#000000" result="flood-2"></feFlood><feComposite operator="in" in="flood-2" in2="SourceAlpha" result="comp2"></feComposite><feMorphology operator="dilate" radius="1" in="comp2" result="dilate"></feMorphology><feOffset dx="-4.5" dy="0" in="dilate" result="offset"></feOffset><feGaussianBlur in="offset" stdDeviation="5.8" result="blur"></feGaussianBlur><feComponentTransfer in="blur" result="shadow"><feFuncA type="linear" slope="0.8" intercept="-0.2"></feFuncA></feComponentTransfer><feMerge><feMergeNode in="shadow"></feMergeNode><feMergeNode in="comp-extrude"></feMergeNode><feMergeNode in="SourceGraphic"></feMergeNode></feMerge></filter></defs><g filter="url(#editing-extrude-glow)"><g transform="translate(132.01499605178833, 97.81500053405762)"><path d="M31.23-44.80L31.23-44.80Q32.06-44.80 32.61-44.26L32.61-44.26L32.61-44.26Q33.15-43.71 33.15-42.88L33.15-42.88L33.15-42.88Q33.15-42.11 32.61-41.57L32.61-41.57L32.61-41.57Q32.06-41.02 31.23-41.02L31.23-41.02L9.92-41.02L9.92-24.96L28.35-24.96L28.35-24.96Q29.18-24.96 29.73-24.45L29.73-24.45L29.73-24.45Q30.27-23.94 30.27-23.10L30.27-23.10L30.27-23.10Q30.27-22.27 29.73-21.76L29.73-21.76L29.73-21.76Q29.18-21.25 28.35-21.25L28.35-21.25L9.92-21.25L9.92-1.92L9.92-1.92Q9.92-1.09 9.38-0.54L9.38-0.54L9.38-0.54Q8.83 0 8 0L8 0L8 0Q7.10 0 6.56-0.54L6.56-0.54L6.56-0.54Q6.02-1.09 6.02-1.92L6.02-1.92L6.02-42.88L6.02-42.88Q6.02-43.71 6.56-44.26L6.56-44.26L6.56-44.26Q7.10-44.80 7.94-44.80L7.94-44.80L31.23-44.80ZM56.58-33.47L56.58-33.47Q57.86-33.47 58.88-32.96L58.88-32.96L58.88-32.96Q59.90-32.45 59.90-31.42L59.90-31.42L59.90-31.42Q59.90-30.53 59.39-29.98L59.39-29.98L59.39-29.98Q58.88-29.44 58.18-29.44L58.18-29.44L58.18-29.44Q57.86-29.44 56.93-29.76L56.93-29.76L56.93-29.76Q56-30.08 55.17-30.08L55.17-30.08L55.17-30.08Q52.80-30.08 50.46-28.26L50.46-28.26L50.46-28.26Q48.13-26.43 46.62-23.55L46.62-23.55L46.62-23.55Q45.12-20.67 45.12-17.73L45.12-17.73L45.12-1.92L45.12-1.92Q45.12-1.09 44.58-0.54L44.58-0.54L44.58-0.54Q44.03 0 43.20 0L43.20 0L43.20 0Q42.37 0 41.82-0.54L41.82-0.54L41.82-0.54Q41.28-1.09 41.28-1.92L41.28-1.92L41.28-30.59L41.28-30.59Q41.28-31.42 41.82-31.97L41.82-31.97L41.82-31.97Q42.37-32.51 43.20-32.51L43.20-32.51L43.20-32.51Q44.03-32.51 44.58-31.97L44.58-31.97L44.58-31.97Q45.12-31.42 45.12-30.59L45.12-30.59L45.12-24.96L45.12-24.96Q46.59-28.61 49.57-31.01L49.57-31.01L49.57-31.01Q52.54-33.41 56.58-33.47L56.58-33.47ZM92.48-32.70L92.48-32.70Q93.31-32.70 93.86-32.13L93.86-32.13L93.86-32.13Q94.40-31.55 94.40-30.72L94.40-30.72L94.40-1.92L94.40-1.92Q94.40-1.09 93.86-0.54L93.86-0.54L93.86-0.54Q93.31 0 92.48 0L92.48 0L92.48 0Q91.65 0 91.10-0.54L91.10-0.54L91.10-0.54Q90.56-1.09 90.56-1.92L90.56-1.92L90.56-6.21L90.56-6.21Q88.96-3.33 85.76-1.34L85.76-1.34L85.76-1.34Q82.56 0.64 78.78 0.64L78.78 0.64L78.78 0.64Q74.50 0.64 71.07-1.60L71.07-1.60L71.07-1.60Q67.65-3.84 65.70-7.74L65.70-7.74L65.70-7.74Q63.74-11.65 63.74-16.51L63.74-16.51L63.74-16.51Q63.74-21.38 65.73-25.25L65.73-25.25L65.73-25.25Q67.71-29.12 71.14-31.30L71.14-31.30L71.14-31.30Q74.56-33.47 78.72-33.47L78.72-33.47L78.72-33.47Q82.56-33.47 85.76-31.62L85.76-31.62L85.76-31.62Q88.96-29.76 90.56-26.75L90.56-26.75L90.56-30.72L90.56-30.72Q90.56-31.55 91.10-32.13L91.10-32.13L91.10-32.13Q91.65-32.70 92.48-32.70L92.48-32.70ZM79.17-2.94L79.17-2.94Q82.50-2.94 85.15-4.70L85.15-4.70L85.15-4.70Q87.81-6.46 89.31-9.57L89.31-9.57L89.31-9.57Q90.82-12.67 90.82-16.51L90.82-16.51L90.82-16.51Q90.82-20.22 89.31-23.30L89.31-23.30L89.31-23.30Q87.81-26.37 85.15-28.13L85.15-28.13L85.15-28.13Q82.50-29.89 79.17-29.89L79.17-29.89L79.17-29.89Q75.84-29.89 73.18-28.16L73.18-28.16L73.18-28.16Q70.53-26.43 69.02-23.39L69.02-23.39L69.02-23.39Q67.52-20.35 67.52-16.51L67.52-16.51L67.52-16.51Q67.52-12.67 68.99-9.57L68.99-9.57L68.99-9.57Q70.46-6.46 73.12-4.70L73.12-4.70L73.12-4.70Q75.78-2.94 79.17-2.94L79.17-2.94ZM141.57-32.96L141.57-32.96Q147.33-32.96 150.05-29.41L150.05-29.41L150.05-29.41Q152.77-25.86 152.77-20.03L152.77-20.03L152.77-1.92L152.77-1.92Q152.77-1.09 152.22-0.54L152.22-0.54L152.22-0.54Q151.68 0 150.85 0L150.85 0L150.85 0Q150.02 0 149.47-0.54L149.47-0.54L149.47-0.54Q148.93-1.09 148.93-1.92L148.93-1.92L148.93-19.84L148.93-19.84Q148.93-24.06 146.91-26.72L146.91-26.72L146.91-26.72Q144.90-29.38 140.67-29.38L140.67-29.38L140.67-29.38Q137.98-29.38 135.58-28.10L135.58-28.10L135.58-28.10Q133.18-26.82 131.71-24.61L131.71-24.61L131.71-24.61Q130.24-22.40 130.24-19.84L130.24-19.84L130.24-1.92L130.24-1.92Q130.24-1.09 129.70-0.54L129.70-0.54L129.70-0.54Q129.15 0 128.32 0L128.32 0L128.32 0Q127.49 0 126.94-0.54L126.94-0.54L126.94-0.54Q126.40-1.09 126.40-1.92L126.40-1.92L126.40-20.03L126.40-20.03Q126.40-24.19 124.48-26.78L124.48-26.78L124.48-26.78Q122.56-29.38 118.46-29.38L118.46-29.38L118.46-29.38Q115.84-29.38 113.50-28.10L113.50-28.10L113.50-28.10Q111.17-26.82 109.73-24.67L109.73-24.67L109.73-24.67Q108.29-22.53 108.29-20.03L108.29-20.03L108.29-1.92L108.29-1.92Q108.29-1.09 107.74-0.54L107.74-0.54L107.74-0.54Q107.20 0 106.37 0L106.37 0L106.37 0Q105.54 0 104.99-0.54L104.99-0.54L104.99-0.54Q104.45-1.09 104.45-1.92L104.45-1.92L104.45-30.59L104.45-30.59Q104.45-31.42 104.99-31.97L104.99-31.97L104.99-31.97Q105.54-32.51 106.37-32.51L106.37-32.51L106.37-32.51Q107.20-32.51 107.74-31.97L107.74-31.97L107.74-31.97Q108.29-31.42 108.29-30.59L108.29-30.59L108.29-26.88L108.29-26.88Q110.02-29.50 112.96-31.23L112.96-31.23L112.96-31.23Q115.90-32.96 119.17-32.96L119.17-32.96L119.17-32.96Q122.88-32.96 125.57-31.17L125.57-31.17L125.57-31.17Q128.26-29.38 129.41-25.92L129.41-25.92L129.41-25.92Q130.75-28.74 134.34-30.85L134.34-30.85L134.34-30.85Q137.92-32.96 141.57-32.96L141.57-32.96ZM190.46-18.24L190.46-18.24Q190.46-17.47 189.89-16.93L189.89-16.93L189.89-16.93Q189.31-16.38 188.54-16.38L188.54-16.38L164.35-16.38L164.35-16.38Q164.35-12.54 165.92-9.50L165.92-9.50L165.92-9.50Q167.49-6.46 170.40-4.70L170.40-4.70L170.40-4.70Q173.31-2.94 177.28-2.94L177.28-2.94L177.28-2.94Q180.35-2.94 182.78-4.22L182.78-4.22L182.78-4.22Q185.22-5.50 186.69-7.49L186.69-7.49L186.69-7.49Q187.39-8.06 188.03-8.06L188.03-8.06L188.03-8.06Q188.67-8.06 189.18-7.55L189.18-7.55L189.18-7.55Q189.70-7.04 189.70-6.40L189.70-6.40L189.70-6.40Q189.70-5.70 189.06-5.06L189.06-5.06L189.06-5.06Q187.01-2.56 183.90-0.96L183.90-0.96L183.90-0.96Q180.80 0.64 177.34 0.64L177.34 0.64L177.34 0.64Q172.42 0.64 168.64-1.47L168.64-1.47L168.64-1.47Q164.86-3.58 162.75-7.39L162.75-7.39L162.75-7.39Q160.64-11.20 160.64-16.19L160.64-16.19L160.64-16.19Q160.64-21.44 162.72-25.38L162.72-25.38L162.72-25.38Q164.80-29.31 168.26-31.39L168.26-31.39L168.26-31.39Q171.71-33.47 175.62-33.47L175.62-33.47L175.62-33.47Q179.46-33.47 182.82-31.68L182.82-31.68L182.82-31.68Q186.18-29.89 188.29-26.43L188.29-26.43L188.29-26.43Q190.40-22.98 190.46-18.24L190.46-18.24ZM175.62-29.76L175.62-29.76Q171.90-29.76 168.74-27.20L168.74-27.20L168.74-27.20Q165.57-24.64 164.67-19.84L164.67-19.84L186.50-19.84L186.50-20.35L186.50-20.35Q186.18-23.23 184.58-25.38L184.58-25.38L184.58-25.38Q182.98-27.52 180.58-28.64L180.58-28.64L180.58-28.64Q178.18-29.76 175.62-29.76L175.62-29.76ZM215.10-22.46L229.50-2.88L229.50-2.88Q229.95-2.24 229.95-1.73L229.95-1.73L229.95-1.73Q229.95-0.83 229.34-0.29L229.34-0.29L229.34-0.29Q228.74 0.26 227.97 0.26L227.97 0.26L227.97 0.26Q227.01 0.26 226.43-0.58L226.43-0.58L212.61-19.33L198.85-0.64L198.85-0.64Q198.27 0.26 197.31 0.26L197.31 0.26L197.31 0.26Q196.54 0.26 196.06-0.29L196.06-0.29L196.06-0.29Q195.58-0.83 195.58-1.47L195.58-1.47L195.58-1.47Q195.58-2.11 196.03-2.75L196.03-2.75L210.43-22.34L195.97-41.92L195.97-41.92Q195.52-42.43 195.52-43.07L195.52-43.07L195.52-43.07Q195.52-43.84 196.13-44.42L196.13-44.42L196.13-44.42Q196.74-44.99 197.50-44.99L197.50-44.99L197.50-44.99Q198.46-44.99 199.10-44.22L199.10-44.22L212.86-25.47L226.56-44.16L226.56-44.16Q227.26-44.99 228.10-44.99L228.10-44.99L228.10-44.99Q228.86-44.99 229.41-44.51L229.41-44.51L229.41-44.51Q229.95-44.03 229.95-43.33L229.95-43.33L229.95-43.33Q229.95-42.82 229.50-42.11L229.50-42.11L215.10-22.46Z" fill="#ffffff"></path></g></g><style>text {
  font-size: 64px;
  font-family: Arial Black;
  dominant-baseline: central;
  text-anchor: middle;
}</style></svg>